<svg width="96" height="96" viewBox="0 0 96 96" fill="none" xmlns="http://www.w3.org/2000/svg">
<g clip-path="url(#clip0_402_155)">
<rect width="96" height="96" rx="18" fill="url(#paint0_linear_402_155)"/>
<path d="M81.6651 68.869C80.5611 72.7828 76.1082 75.3361 69.8705 76.2494C81.7755 66.9307 72.6858 57.0903 56.8062 54.4065C56.1438 54.2574 55.4262 54.3319 54.8006 54.5929C54.1566 54.8724 53.623 55.3197 53.2366 55.8975C52.8502 56.4752 52.6478 57.1648 52.6478 57.8544C52.6478 58.1526 52.6846 58.4694 52.7766 58.7676C46.9437 65.1975 38.4243 70.2854 38.4243 70.2854H38.4059C28.8009 75.858 19.7479 77.0321 15.9022 72.5405C13.6022 69.8568 13.5286 65.5888 15.3134 60.6873C15.939 72.5405 31.3033 70.4532 41.9572 58.0408C42.4724 57.6307 42.8772 57.1089 43.1164 56.4939C43.3372 55.8788 43.4108 55.2079 43.282 54.5742C43.1716 53.9219 42.8588 53.3255 42.4356 52.841C41.994 52.3564 41.4235 52.0023 40.7979 51.8346C37.7619 43.5782 36.8603 37.6143 36.6027 34.2596C36.5291 33.1787 36.5107 32.1163 36.5291 31.1099C36.6763 24.1955 38.7739 19.0516 42.7116 17.4861C45.8212 16.256 49.5565 17.4115 53.3102 20.3749C42.8772 17.5234 41.7916 30.9795 46.8701 44.0628C46.9253 44.2678 47.0173 44.4542 47.0909 44.6592C47.4221 45.3115 47.9557 45.852 48.5997 46.2061C49.2437 46.5416 49.9797 46.672 50.7157 46.5602C51.4333 46.467 52.1142 46.1316 52.6294 45.6097C56.5302 46.5229 63.8536 48.6103 70.3121 52.4869V52.5428C71.8025 53.4374 73.2378 54.4251 74.5994 55.5061C74.6546 55.5434 74.7098 55.5993 74.765 55.6366C80.0827 59.9231 82.8428 64.7502 81.6651 68.869Z" fill="url(#paint1_radial_402_155)"/>
<path d="M69.0056 46.7466C64.0007 44.3424 58.7382 42.5718 53.3101 41.4722C52.9789 40.8199 52.4453 40.2794 51.8013 39.944C51.1388 39.6085 50.4028 39.478 49.6852 39.5898C48.9492 39.7017 48.2868 40.0558 47.7532 40.5776C47.238 41.0995 46.8884 41.7704 46.778 42.4973C46.686 43.0377 46.7228 43.5596 46.87 44.0628C41.7915 30.9794 42.8771 17.5233 53.3101 20.3748C58.3886 24.3818 63.4855 31.6877 67 40.7826C67.7912 42.7768 68.4536 44.7896 69.0056 46.7466Z" fill="url(#paint2_radial_402_155)"/>
<path d="M41.9571 58.0407C31.3033 70.4532 15.939 72.5405 15.3134 60.6872C17.4846 54.6674 22.4527 47.6784 29.4264 41.5468C30.6409 40.4844 31.8737 39.478 33.1065 38.5648C33.8057 43.5782 35.1121 48.4798 37.0258 53.1578C36.6026 53.7542 36.3818 54.481 36.3818 55.2265C36.3818 55.8788 36.5658 56.5125 36.897 57.0716C37.2466 57.6307 37.725 58.078 38.3138 58.3762C38.8842 58.6744 39.5466 58.7862 40.1906 58.7303C40.8347 58.6744 41.4419 58.4321 41.9571 58.0407Z" fill="url(#paint3_radial_402_155)"/>
<path d="M48.6548 74.2552C56.475 76.5289 63.9823 77.1253 69.8705 76.2494C81.7755 66.9307 72.6857 57.0903 56.8062 54.4065C57.487 54.5369 58.1126 54.8724 58.591 55.357C59.0694 55.8602 59.4006 56.4939 59.5478 57.1648C59.6766 57.8544 59.603 58.5626 59.3454 59.2149C59.0878 59.8486 58.6278 60.4077 58.0574 60.7804C57.487 61.1718 56.8062 61.3768 56.1254 61.3768H56.0334C53.9725 63.7065 49.0964 68.8876 43.1715 72.3914C44.938 73.081 46.7412 73.7147 48.6548 74.2552Z" fill="url(#paint4_radial_402_155)"/>
</g>
<defs>
<linearGradient id="paint0_linear_402_155" x1="48" y1="0" x2="48" y2="96" gradientUnits="userSpaceOnUse">
<stop stop-color="#5B4DFF"/>
<stop offset="1" stop-color="#4636FF"/>
</linearGradient>
<radialGradient id="paint1_radial_402_155" cx="0" cy="0" r="1" gradientUnits="userSpaceOnUse" gradientTransform="translate(49.4887 52.7255) scale(38.7971 39.0402)">
<stop stop-color="white" stop-opacity="0.3"/>
<stop offset="1" stop-color="white"/>
</radialGradient>
<radialGradient id="paint2_radial_402_155" cx="0" cy="0" r="1" gradientUnits="userSpaceOnUse" gradientTransform="translate(48.588 51.3668) scale(32.2176 31.0785)">
<stop offset="0.4" stop-color="white"/>
<stop offset="1" stop-color="white" stop-opacity="0.5"/>
</radialGradient>
<radialGradient id="paint3_radial_402_155" cx="0" cy="0" r="1" gradientUnits="userSpaceOnUse" gradientTransform="translate(48.588 51.3668) scale(32.2176 31.0785)">
<stop offset="0.4" stop-color="white"/>
<stop offset="1" stop-color="white" stop-opacity="0.5"/>
</radialGradient>
<radialGradient id="paint4_radial_402_155" cx="0" cy="0" r="1" gradientUnits="userSpaceOnUse" gradientTransform="translate(48.588 51.3668) scale(32.2176 31.0785)">
<stop offset="0.4" stop-color="white"/>
<stop offset="1" stop-color="white" stop-opacity="0.5"/>
</radialGradient>
<clipPath id="clip0_402_155">
<rect width="96" height="96" fill="white"/>
</clipPath>
</defs>
</svg>
